<svg width="18" height="14" viewBox="0 0 18 14" fill="none" xmlns="http://www.w3.org/2000/svg">
<path d="M6.13044 0.683926C5.91442 0.16713 5.35114 -0.106308 4.8152 0.0386139L4.66481 0.0796295C2.89841 0.56088 1.38903 2.2726 1.82927 4.35619C2.84372 9.14135 6.60895 12.9066 11.3941 13.921C13.4804 14.364 15.1894 12.8519 15.6707 11.0855L15.7117 10.9351C15.8593 10.3964 15.5832 9.83315 15.0691 9.61986L12.4086 8.51244C11.9574 8.32377 11.4351 8.45502 11.1234 8.8351L10.0679 10.1257C8.14567 9.17143 6.59802 7.57455 5.70934 5.614L6.91794 4.62963C7.29802 4.32065 7.42653 3.79838 7.24059 3.34447L6.13044 0.683926Z" fill="#22C55E"/>
</svg>
