<svg width="11" height="15" viewBox="0 0 11 15" fill="none" xmlns="http://www.w3.org/2000/svg">
<path d="M0.00273437 5.15703C0.00273437 2.30781 2.3543 0 5.25273 0C8.15117 0 10.5027 2.30781 10.5027 5.15703C10.5027 8.41914 7.21602 12.3293 5.84336 13.8195C5.5207 14.1695 4.98203 14.1695 4.65938 13.8195C3.28672 12.3293 0 8.41914 0 5.15703H0.00273437ZM5.25273 7C5.71686 7 6.16198 6.81563 6.49017 6.48744C6.81836 6.15925 7.00273 5.71413 7.00273 5.25C7.00273 4.78587 6.81836 4.34075 6.49017 4.01256C6.16198 3.68437 5.71686 3.5 5.25273 3.5C4.78861 3.5 4.34349 3.68437 4.0153 4.01256C3.68711 4.34075 3.50273 4.78587 3.50273 5.25C3.50273 5.71413 3.68711 6.15925 4.0153 6.48744C4.34349 6.81563 4.78861 7 5.25273 7Z" fill="#22C55E"/>
</svg>
