<svg width="14" height="11" viewBox="0 0 14 11" fill="none" xmlns="http://www.w3.org/2000/svg">
<path d="M1.3125 0C0.587891 0 0 0.587891 0 1.3125C0 1.72539 0.194141 2.11367 0.525 2.3625L6.2125 6.62812C6.68008 6.97812 7.31992 6.97812 7.7875 6.62812L13.475 2.3625C13.8059 2.11367 14 1.72539 14 1.3125C14 0.587891 13.4121 0 12.6875 0H1.3125ZM0 3.60938V8.75C0 9.71523 0.784766 10.5 1.75 10.5H12.25C13.2152 10.5 14 9.71523 14 8.75V3.60938L8.575 7.67812C7.64258 8.37812 6.35742 8.37812 5.425 7.67812L0 3.60938Z" fill="#22C55E"/>
</svg>
